/* XPM */
static char *bricks_test1[] = {
/* columns rows colors chars-per-pixel */
"84 56 256 2 ",
"   c #0D0100",
".  c #0C0906",
"X  c #140301",
"o  c #1B0401",
"O  c #150A05",
"+  c #1C0A04",
"@  c #150C0A",
"#  c #1B0D0A",
"$  c #150709",
"%  c #1C110D",
"&  c #16110C",
"*  c #1C1412",
"=  c #1A1816",
"-  c #150F11",
";  c #230400",
":  c #230B04",
">  c #2B0C03",
",  c #230E0A",
"<  c #2A0B06",
"1  c #340C03",
"2  c #24120C",
"3  c #2B130C",
"4  c #2A1207",
"5  c #33140C",
"6  c #38160B",
"7  c #231512",
"8  c #2B1612",
"9  c #2C1A14",
"0  c #271B18",
"q  c #331B14",
"w  c #3B1C14",
"e  c #351B17",
"r  c #240E11",
"t  c #34221C",
"y  c #3B231C",
"u  c #3B2318",
"i  c #2C211C",
"p  c #3A2823",
"a  c #362C28",
"s  c #201E21",
"d  c #46170A",
"f  c #441D14",
"g  c #521A0D",
"h  c #43241B",
"j  c #49251B",
"k  c #57271A",
"l  c #512715",
"z  c #652A1B",
"x  c #6C301E",
"c  c #442B24",
"v  c #4B2C23",
"b  c #462B26",
"n  c #552D24",
"m  c #4C332C",
"M  c #46322A",
"N  c #53342B",
"B  c #59352A",
"V  c #4B3933",
"C  c #543B34",
"Z  c #5B3C33",
"A  c #563B36",
"S  c #482E32",
"D  c #683629",
"F  c #76392A",
"G  c #653D34",
"H  c #793E32",
"J  c #682E22",
"K  c #551F19",
"L  c #5A433B",
"P  c #4F4139",
"I  c #63443B",
"U  c #6A453A",
"Y  c #7C4334",
"T  c #77473A",
"R  c #794330",
"E  c #5C4942",
"W  c #5A4F49",
"Q  c #6C4C43",
"!  c #654B44",
"~  c #764D43",
"^  c #6B534A",
"/  c #73544B",
"(  c #7A5549",
")  c #785B53",
"_  c #6C5952",
"`  c #7B6359",
"'  c #716256",
"]  c #7C6962",
"[  c #553F41",
"{  c #813E30",
"}  c #834434",
"|  c #844B3C",
" . c #8B4C3C",
".. c #864638",
"X. c #914D3D",
"o. c #8B513E",
"O. c #904F3C",
"+. c #8C4E42",
"@. c #844D41",
"#. c #924E42",
"$. c #8D5343",
"%. c #8C5B4C",
"&. c #865649",
"*. c #935444",
"=. c #995645",
"-. c #945946",
";. c #945649",
":. c #955B4B",
">. c #9B5C4C",
",. c #9A5848",
"<. c #835D53",
"1. c #8B5D53",
"2. c #945D51",
"3. c #9C5E51",
"4. c #965C56",
"5. c #A15E4D",
"6. c #A35948",
"7. c #A25E52",
"8. c #A65C52",
"9. c #9C614E",
"0. c #95614E",
"q. c #8B655B",
"w. c #876459",
"e. c #946354",
"r. c #9D6353",
"t. c #9C6659",
"y. c #946A5C",
"u. c #9C6B5C",
"i. c #986758",
"p. c #976C5A",
"a. c #A2614E",
"s. c #A9634E",
"d. c #A36454",
"f. c #A96655",
"g. c #A46956",
"h. c #AA6A56",
"j. c #A36659",
"k. c #A56B5B",
"l. c #AB6C5C",
"z. c #A96659",
"x. c #B16E5D",
"c. c #B26A57",
"v. c #A5715D",
"b. c #AC715E",
"n. c #AB755B",
"m. c #B2725E",
"M. c #B6755E",
"N. c #896B63",
"B. c #936D63",
"V. c #9C6D62",
"C. c #966B65",
"Z. c #8C7369",
"A. c #9C7264",
"S. c #9C756B",
"D. c #96756A",
"F. c #9A7C73",
"G. c #8C7972",
"H. c #A46E61",
"J. c #AB6E61",
"K. c #A36B66",
"L. c #B16E61",
"P. c #A57363",
"I. c #AC7363",
"U. c #AC7965",
"Y. c #A4756A",
"T. c #AC7669",
"R. c #A47A6C",
"E. c #AC7B6B",
"W. c #A67965",
"Q. c #B27564",
"!. c #B37966",
"~. c #B27669",
"^. c #B47C6B",
"/. c #BA7D6C",
"(. c #B97866",
"). c #A47D72",
"_. c #AC7D72",
"`. c #A67B75",
"'. c #B47E71",
"]. c #BA7E71",
"[. c #B17E78",
"{. c #C17E6E",
"}. c #9C8278",
"|. c #968070",
" X c #AD816D",
".X c #B4816D",
"XX c #BA816E",
"oX c #B78369",
"OX c #AD8273",
"+X c #AC857A",
"@X c #A7867A",
"#X c #B48373",
"$X c #BB8473",
"%X c #B58975",
"&X c #BC8975",
"*X c #B4857A",
"=X c #BB8679",
"-X c #B58A7B",
";X c #BC8C7B",
":X c #BD917D",
">X c #B6917D",
",X c #AD907F",
"<X c #C18574",
"1X c #C28976",
"2X c #C38C7B",
"3X c #C98D7C",
"4X c #C28679",
"5X c #C3917D",
"6X c #CA927E",
"7X c #C2957C",
"8X c #C2836F",
"9X c #AA8C82",
"0X c #B48D82",
"qX c #BC8E82",
"wX c #B48B85",
"eX c #BC9383",
"rX c #BC958A",
"tX c #BD9A8C",
"yX c #B69487",
"uX c #BB9C92",
"iX c #AC9288",
"pX c #BDA295",
"aX c #A49089",
"sX c #C38E81",
"dX c #C98E81",
"fX c #C39483",
"gX c #CB9483",
"hX c #C49985",
"jX c #CB9A85",
"kX c #C49B8B",
"lX c #CB9C8B",
"zX c #C59689",
"xX c #D29C8B",
"cX c #D29886",
"vX c #C69D92",
"bX c #D39E91",
"nX c #CCA28D",
"mX c #C6A18D",
"MX c #D3A28E",
"NX c #C5A293",
"BX c #CCA393",
"VX c #CDAA9B",
"CX c #CAA798",
"ZX c #D3A493",
"AX c #D3AC9B",
"SX c #D7A997",
"DX c #D7B19D",
"FX c #CEB09D",
"GX c #D4ADA2",
"HX c #D8B5A5",
"JX c #CFB1A5",
"KX c #E3B9A8",
"LX c #E2AE9B",
"PX c #E7C5B6",
"IX c #DDC2B4",
"UX c #EED1C5",
/* pixels */
"/./.s.s.a.a.a.d.d.L.L.o.*.*.E.E.E.E.l.9.9././.XXXX3.3.3.I.I.&.&.k.n n W.W.W.W.h.Q.Q.T.T.b.b.k.k.k.V.V.i.i.w.x.x.%X%X%X%XI.!.!.I.I.H.H.b.b.b.v v l.l.h.T.T.l.l.l.l.t.&.&.",
"/./.s.s.a.a.a.d.d.L.L.o.*.*.E.E.E.E.l.9.9././.XXXX3.3.3.I.I.&.&.k.n n W.W.W.W.h.Q.Q.T.T.b.b.k.k.k.V.V.i.i.w.x.x.%X%X%X%XI.!.!.I.I.H.H.b.b.b.v v l.l.h.T.T.l.l.l.l.t.&.&.",
"A.A.v v &.&.&.e.e.U U T < < 3 3 3 3 : = = = = = = & & & D.D.9 9 : O O + + + + % * * = = * * @ @ @ * * $ $ - # # 9 9 9 9 % @ @ 7 7 5 5 7 7 7 = = * * * 2 2 3 3 3 3 @ - - ",
"A.A.v v &.&.&.e.e.U U T < < 3 3 3 3 : = = = = = = & & & D.D.9 9 : O O + + + + % * * = = * * @ @ @ * * $ $ - # # 9 9 9 9 % @ @ 7 7 5 5 7 7 7 = = * * * 2 2 3 3 3 3 @ - - ",
"K.K.i.i.E.E.E.I.I.fXfX%X2X2X_._._._.U.qXqXj.j.^.^.,X,X,XU.U.H.H.&.4X4X.X.X.X.X/.b.b.L.L.a.a.I.I.I.>.>.k.k.; XXXX.X.X.X.Xb.J.J.4.4.j.j.l.l.l.m.m.:.:.3.3.3.;.;.;.;.T.r.r.",
"K.K.i.i.E.E.E.I.I.fXfX%X2X2X_._._._.U.qXqXj.j.^.^.,X,X,XU.U.H.H.&.4X4X.X.X.X.X/.b.b.L.L.a.a.I.I.I.>.>.k.k.; XXXX.X.X.X.Xb.J.J.4.4.j.j.l.l.l.m.m.:.:.3.3.3.;.;.;.;.T.r.r.",
"K.K.i.i.E.E.E.I.I.fXfX%X2X2X_._._._.U.qXqXj.j.^.^.,X,X,XU.U.H.H.&.4X4X.X.X.X.X/.b.b.L.L.a.a.I.I.I.>.>.k.k.; XXXX.X.X.X.Xb.J.J.4.4.j.j.l.l.l.m.m.:.:.3.3.3.;.;.;.;.T.r.r.",
">.>.b.b.X.X.X.l.l.r.r.g.XXXXI I I I Q.>.>.^.^.mXmXk.k.k.XXXXn.n. .=.=.l.l.l.l.b.>.>.    7X7Xn.n.n.(.(.f.f.g.XXXXeXeXeXeX(.Q.Q.>X>X5.5.5.5.5.k.k.J.J.l.Q.Q.J.J.J.J.4.J.J.",
">.>.b.b.X.X.X.l.l.r.r.g.XXXXI I I I Q.>.>.^.^.mXmXk.k.k.XXXXn.n. .=.=.l.l.l.l.b.>.>.    7X7Xn.n.n.(.(.f.f.g.XXXXeXeXeXeX(.Q.Q.>X>X5.5.5.5.5.k.k.J.J.l.Q.Q.J.J.J.J.4.J.J.",
"....d.d.l.l.l.f.f.>.>.h.l.l.Q.Q.Q.Q.XX X X} } ].].u.u.u.I.I.Q.Q.oX#X#X;.;.;.;.&X&X&X<X<XX.X.&X&X&X} } { { c l.l.2X2X2X2X/.H.H.K.K.~.~.+.+.+.k.k.;.;.Q.8.8.4.4.4.4.r.I.I.",
"....d.d.l.l.l.f.f.>.>.h.l.l.Q.Q.Q.Q.XX X X} } ].].u.u.u.I.I.Q.Q.oX#X#X;.;.;.;.&X&X&X<X<XX.X.&X&X&X} } { { c l.l.2X2X2X2X/.H.H.K.K.~.~.+.+.+.k.k.;.;.Q.8.8.4.4.4.4.r.I.I.",
"(.(.h.h.].].].1X1X!.!.d.*.*.P.P.P.P.I.Q.Q.f.f.sXsX~.~.~.7.7.mXmXxX$X$XXXXXXXXXo U.U.p p 1X1X#X#X#XQ.Q././.+.J.J.@.@.@.@.>.-.-.#X#X>.>.H.H.H.#X#Xj.j.7.7.7.H.H.H.H.H 3.3.",
"(.(.9.9.i.i.i.T T | | h.d.d.~.~.~.~.!.b.b.....6X6XK.K.K.j j ( ( qXD.D.^.^.^.^.W.N.N.q.q.R.R.zXzXzXR.R.J.J.Z.zXzX=X=X=X=XzX;X;X&.&.lXlXq.q.q.A A &.&.<.C.C.Y.Y.Y.Y.b.3.3.",
"(.(.9.9.i.i.i.T T | | h.d.d.~.~.~.~.!.b.b.....6X6XK.K.K.j j ( ( qXD.D.^.^.^.^.W.N.N.q.q.R.R.zXzXzXR.R.J.J.Z.zXzX=X=X=X=XzX;X;X&.&.lXlXq.q.q.A A &.&.<.C.C.Y.Y.Y.Y.b.3.3.",
"oXoXn.n.9.9.9.!.!.=X=Xl.4.4.U.U.U.U.P.^.^.lXlX_._.u.u.u.&X&XI.I.$XA.A.BXBXBXBX-X$X$XN.N.Y.Y.t.t.t.R.R.^.^.'.;X;XZXZXZXZX#X%X%X=X=XeXeXC.C.C.N.N.~ ~ *XV.V.P.P.P.P.C.< < ",
"oXoXn.n.9.9.9.!.!.=X=Xl.4.4.U.U.U.U.P.^.^.lXlX_._.u.u.u.&X&XI.I.$XA.A.BXBXBXBX-X$X$XN.N.Y.Y.t.t.t.R.R.^.^.'.;X;XZXZXZXZX#X%X%X=X=XeXeXC.C.C.N.N.~ ~ *XV.V.P.P.P.P.C.< < ",
"9 9 w w       @ @ X X X o o         w u u 4 4 ~ ~ I I I Q Q + + X # # w.w.w.w.S.N.N._ _ m m 9 9 9 X X 4 4 9 + + iXiXiXiXU c c N N I I 3 3 3 0 0 t t 3 f f Q Q Q Q N n n ",
"9 9 w w       @ @ X X X o o         w u u 4 4 ~ ~ I I I Q Q + + X # # w.w.w.w.S.N.N._ _ m m 9 9 9 X X 4 4 9 + + iXiXiXiXU c c N N I I 3 3 3 0 0 t t 3 f f Q Q Q Q N n n ",
"9 9 w w       @ @ X X X o o         w u u 4 4 ~ ~ I I I Q Q + + X # # w.w.w.w.S.N.N._ _ m m 9 9 9 X X 4 4 9 + + iXiXiXiXU c c N N I I 3 3 3 0 0 t t 3 f f Q Q Q Q N n n ",
":X:X7X7XBXBXBXI.I.oXoXl.b.b.SXSXSXSXXX$X$Xl.l.hXhX;X;X;X;X;Xd.d.&XnXnXk.k.k.k./.oXoXm.m.6X6X2X2X2Xv.v.P.P.=XP.P.BXBXBXBXY.2X2X$X$Xe.e.g.g.g.*.*.^.^.I.XXXXE.E.E.E.L.k.k.",
":X:X7X7XBXBXBXI.I.oXoXl.b.b.SXSXSXSXXX$X$Xl.l.hXhX;X;X;X;X;Xd.d.&XnXnXk.k.k.k./.oXoXm.m.6X6X2X2X2Xv.v.P.P.=XP.P.BXBXBXBXY.2X2X$X$Xe.e.g.g.g.*.*.^.^.I.XXXXE.E.E.E.L.k.k.",
"b.b.(.(.k.k.k.!.!.1X1X<Xg.g.; ; ; ; %X&X&X#.#.U.U.;X;X;Xk.k.MXMXMXXXXX#X#X#X#XQ.$X$X'.'.Q.Q.J.J.J.3X3XI.I.;Xr.r.!.!.!.!.j.XXXX~ ~ 5X5X2X2X2Xq q l.l...I.I.>.>.>.>./.Q.Q.",
"b.b.(.(.k.k.k.!.!.1X1X<Xg.g.; ; ; ; %X&X&X#.#.U.U.;X;X;Xk.k.MXMXMXXXXX#X#X#X#XQ.$X$X'.'.Q.Q.J.J.J.3X3XI.I.;Xr.r.!.!.!.!.j.XXXX~ ~ 5X5X2X2X2Xq q l.l...I.I.>.>.>.>./.Q.Q.",
"fXfXz z !.!.!.7X7XjXjX3X7X7X2X2X2X2XSX2X2X7.7.E.E. X X X X Xj.j.L.k.k.9.9.9.9.!.xXxX(.(././.nXnXnX%.%./././.VXVX=X=X=X=X^.g.g././.~.~.b.b.b.I.I.z.z.8Xl.l.].].].].d.r.r.",
"fXfXz z !.!.!.7X7XjXjX3X7X7X2X2X2X2XSX2X2X7.7.E.E. X X X X Xj.j.L.k.k.9.9.9.9.!.xXxX(.(././.nXnXnX%.%./././.VXVX=X=X=X=X^.g.g././.~.~.b.b.b.I.I.z.z.8Xl.l.].].].].d.r.r.",
"{.{.-.-./././.d d x.x.r.u.u.:X:X:X:X#Xd d !.!.kXkXo.o.o.oXoX0.0./.6X6XBXBXBXBX2X2X2X9 9 ;X;X^.^.^..X.XSXSX2X2X2XDXDXDXDXQ.$X$X;X;XXXXXJ J J D D z.z.XXr.r.$X$X$X$XJ.l.l.",
"2.2.b.b.E.E.E.^.^.$X$Xd.:.:.^.^.^.^.XXR.R.[.[.d.d.=X=X=Xt.t.^.^.ZXu.u.g.g.g.g.&Xe.e.*X*X5X5XE.E.E.I.I.&X&XY.&X&XW.W.W.W.lX#X#X@.@.Y.Y.lXlXlXeXeX;X;X+XJ.J.&.&.&.&.;XI.I.",
"2.2.b.b.E.E.E.^.^.$X$Xd.:.:.^.^.^.^.XXR.R.[.[.d.d.=X=X=Xt.t.^.^.ZXu.u.g.g.g.g.&Xe.e.*X*X5X5XE.E.E.I.I.&X&XY.&X&XW.W.W.W.lX#X#X@.@.Y.Y.lXlXlXeXeX;X;X+XJ.J.&.&.&.&.;XI.I.",
"2.2.b.b.E.E.E.^.^.$X$Xd.:.:.^.^.^.^.XXR.R.[.[.d.d.=X=X=Xt.t.^.^.ZXu.u.g.g.g.g.&Xe.e.*X*X5X5XE.E.E.I.I.&X&XY.&X&XW.W.W.W.lX#X#X@.@.Y.Y.lXlXlXeXeX;X;X+XJ.J.&.&.&.&.;XI.I.",
"2.2.b.b.E.E.E.^.^.$X$Xd.:.:.^.^.^.^.XXR.R.[.[.d.d.=X=X=Xt.t.^.^.ZXu.u.g.g.g.g.&Xe.e.*X*X5X5XE.E.E.I.I.&X&XY.&X&XW.W.W.W.lX#X#X@.@.Y.Y.lXlXlXeXeX;X;X+XJ.J.&.&.&.&.;XI.I.",
"% % O O r r r O O * * # 0 0 s s s s = s s 0 0 & & 7 7 7 O O + + = & & s s s s * , , 7 7 9 9 j j j . . W.W.m X X m m m m . 2 2 . . + + : : : $ $ w w v 8 8 v v v v S.I I ",
"% % O O r r r O O * * # 0 0 s s s s = s s 0 0 & & 7 7 7 O O + + = & & s s s s * , , 7 7 9 9 j j j . . W.W.m X X m m m m . 2 2 . . + + : : : $ $ w w v 8 8 v v v v S.I I ",
"K.K.Q.Q.2X2X2XI.I.#X#X&XmXmXnXnXnXnXe.ZXZX=X=X].].J J J E.E.lXlX6XgXgXkXkXkXkXyXsXsXFXFX^.^.FXFXFXXXXXSXSXDX].].E.E.E.E.].:.:.#X#X2X2Xr.r.r.V.V.*.*.4X[.[.=X=X=X=X:.^.^.",
"].].^.^.q.q.q.k.k.h.h.].E.E.SXSXSXSX$XtXtX=X=XQ.Q.fXfXfX/./.2X2XGXgXgXl.l.l.l.l.$X$XQ.Q.b.b.%X%X%Xf.f.<X<XoX-.-.P.P.P.P.nXfXfXlXlXnXnXI.I.I.gXgXH.H.~.^.^.+.+.+.+.;X . .",
"].].^.^.q.q.q.k.k.h.h.].E.E.SXSXSXSX$XtXtX=X=XQ.Q.fXfXfX/./.2X2XGXgXgXl.l.l.l.l.$X$XQ.Q.b.b.%X%X%Xf.f.<X<XoX-.-.P.P.P.P.nXfXfXlXlXnXnXI.I.I.gXgXH.H.~.^.^.+.+.+.+.;X . .",
"&X&X/./.g.g.g.6X6X6X6Xm.I.I.B.B.B.B.:XoXoXfXfX&X&XQ.Q.Q.n.n.f.f.r.;.;.kXkXkXkXX.f.f.y.y.DXDX1X1X1X.X.XlXlXBX^.^.kXkXkXkX .#X#X~.~.K.K.^.^.^.< < ^.^.;X^.^.e.e.e.e.j.>.>.",
"&X&X/./.g.g.g.6X6X6X6Xm.I.I.B.B.B.B.:XoXoXfXfX&X&XQ.Q.Q.n.n.f.f.r.;.;.kXkXkXkXX.f.f.y.y.DXDX1X1X1X.X.XlXlXBX^.^.kXkXkXkX .#X#X~.~.K.K.^.^.^.< < ^.^.;X^.^.e.e.e.e.j.>.>.",
"oXoXx.x.XXXXXXn.n.$X$X#X!.!.I.I.I.I.Y.5X5XI.I.;X;XzXzXzX].].k.k.PXoXoXk.k.k.k.&XoXoXI.I.<X<X| | | 2X2XSXSX8XI.I.=X=X=X=X1.k.k.#X#X~.~.I.I.I.I.I.;X;X;X7.7.$X$X$X$Xl.d.d.",
"oXoXx.x.XXXXXXn.n.$X$X#X!.!.I.I.I.I.Y.5X5XI.I.;X;XzXzXzX].].k.k.PXoXoXk.k.k.k.&XoXoXI.I.<X<X| | | 2X2XSXSX8XI.I.=X=X=X=X1.k.k.#X#X~.~.I.I.I.I.I.;X;X;X7.7.$X$X$X$Xl.d.d.",
"oXoXx.x.XXXXXXn.n.$X$X#X!.!.I.I.I.I.Y.5X5XI.I.;X;XzXzXzX].].k.k.PXoXoXk.k.k.k.&XoXoXI.I.<X<X| | | 2X2XSXSX8XI.I.=X=X=X=X1.k.k.#X#X~.~.I.I.I.I.I.;X;X;X7.7.$X$X$X$Xl.d.d.",
"y.y.^.^.:.:.:.T.T.XXXXI././.].].].].6X^.^.vXvX6X6X;.;.;.=X=X0.0.:..X.X.X.X.X.Xj.2X2XXXXXv.v.E.E.E.OXOX$X$XP.sXsXzXzXzXzXkX>X>XkXkXE.E.T.T.T.t t =X=XY.eXeXE.E.E.E._.1.1.",
"y.y.^.^.:.:.:.T.T.XXXXI././.].].].].6X^.^.vXvX6X6X;.;.;.=X=X0.0.:..X.X.X.X.X.Xj.2X2XXXXXv.v.E.E.E.OXOX$X$XP.sXsXzXzXzXzXkX>X>XkXkXE.E.T.T.T.t t =X=XY.eXeXE.E.E.E._.1.1.",
"d.d.^.^.6 6 6 !.!.J.J.].=X=XXXXXXXXXlXE.E.5X5X~.~./././. X Xo.o.&X5X5X . . . .;XhXhX#X#X$X$Xg.g.g.2X2X=X=X~.W.W.fXfXfXfXu.sXsX].].zXzX.X.X.Xk.k.=X=X&X'.'.Y.Y.Y.Y.#Xu.u.",
"d.d.^.^.6 6 6 !.!.J.J.].=X=XXXXXXXXXlXE.E.5X5X~.~./././. X Xo.o.&X5X5X . . . .;XhXhX#X#X$X$Xg.g.g.2X2X=X=X~.W.W.fXfXfXfXu.sXsX].].zXzX.X.X.Xk.k.=X=X&X'.'.Y.Y.Y.Y.#Xu.u.",
"7 7 & & . . . * * 7 7 X O O < < < < o ; ; 8 8 u u 5 5 5 o o 5 5 o O O . . . . O X X X X     O O O O O G.G.X O O $ $ $ $ 7 9 9 2 2 * * X X X M M ' ' L CXCX).).).).eXB.B.",
"7 7 & & . . . * * 7 7 X O O < < < < o ; ; 8 8 u u 5 5 5 o o 5 5 o O O . . . . O X X X X     O O O O O G.G.X O O $ $ $ $ 7 9 9 2 2 * * X X X M M ' ' L CXCX).).).).eXB.B.",
"g.g.U.U.%X%X%Xv.v.z.z.r.^.^.mXmXmXmX%XBXBX` ` $X$X@.@.@.k.k.I.I.>X=X=Xu.u.u.u.^.%X%XmXmX^.^.7X7X7XtXtXU.U. X>X>X#X#X#X#XeXhXhX;X;X*.*.#X#X#X&.&.lXlXE.~.~.;.;.;.;.d.J.J.",
"z.z.!.!.l.l.l.a.a.>.>.W.%X%Xd.d.d.d.~.b.b.l.l.n.n.2X2X2XU.U.u.u.DXn.n.$X$X$X$X.X&X&Xg.g.o.o.g.g.g././.k.k.v.f.f.x.x.x.x.X fXfXj.j.P.P.I.I.I.I.I.=X=XJ.XXXXK.K.K.K.7.*.*.",
"z.z.!.!.l.l.l.a.a.>.>.W.%X%Xd.d.d.d.~.b.b.l.l.n.n.2X2X2XU.U.u.u.DXn.n.$X$X$X$X.X&X&Xg.g.o.o.g.g.g././.k.k.v.f.f.x.x.x.x.X fXfXj.j.P.P.I.I.I.I.I.=X=XJ.XXXXK.K.K.K.7.*.*.",
"oXoXQ.Q.6.6.6.g.g.I.I.U.=.=.!.!.!.!.E.f.f.vXvX].].r.r.r.Q.Q.^.^.6X;X;Xz.z.z.z.I.l.l.].].j.j.F F F -X-Xl.l.>.J.J.U.U.U.U.J.Q.Q.qXqXI.I.L.L.L.^.^.*.*.b.E.E.3.3.3.3.e.n.n.",
"oXoXQ.Q.6.6.6.g.g.I.I.U.=.=.!.!.!.!.E.f.f.vXvX].].r.r.r.Q.Q.^.^.6X;X;Xz.z.z.z.I.l.l.].].j.j.F F F -X-Xl.l.>.J.J.U.U.U.U.J.Q.Q.qXqXI.I.L.L.L.^.^.*.*.b.E.E.3.3.3.3.e.n.n.",
"oXoXQ.Q.6.6.6.g.g.I.I.U.=.=.!.!.!.!.E.f.f.vXvX].].r.r.r.Q.Q.^.^.6X;X;Xz.z.z.z.I.l.l.].].j.j.F F F -X-Xl.l.>.J.J.U.U.U.U.J.Q.Q.qXqXI.I.L.L.L.^.^.*.*.b.E.E.3.3.3.3.e.n.n.",
"oXoXQ.Q.6.6.6.g.g.I.I.U.=.=.!.!.!.!.E.f.f.vXvX].].r.r.r.Q.Q.^.^.6X;X;Xz.z.z.z.I.l.l.].].j.j.F F F -X-Xl.l.>.J.J.U.U.U.U.J.Q.Q.qXqXI.I.L.L.L.^.^.*.*.b.E.E.3.3.3.3.e.n.n.",
"9.9.9.9.N N N c.c.*.*.3Xk.k.>.>.>.>.Q././.2X2X5X5X8X8X8X9.9.m.m.q.~.~..X.X.X.X=Xl.l.Q.Q././.<X<X<X-.-.;X;Xv.>.>.j.j.j.j., !.!.j.j.'.'.v.v.v.l.l.@.@.~.:.:.~.~.~.~.j.I.I.",
"u.u.!.!.p.p.p././.XXXXv.l.l.e.e.e.e.a././.;X;X/./.Q.Q.Q.oXoXQ.Q. .oXoX!.!.!.!.>.r.r.$X$Xj.j.*.*.*.T.T.=X=XJ.l.l.z.z.z.z.3.!.!.#X#XJ.J.^.^.^.H.H.b.b.~.*X*X/ / / / Z b b ",
"u.u.!.!.p.p.p././.XXXXv.l.l.e.e.e.e.a././.;X;X/./.Q.Q.Q.oXoXQ.Q. .oXoX!.!.!.!.>.r.r.$X$Xj.j.*.*.*.T.T.=X=XJ.l.l.z.z.z.z.3.!.!.#X#XJ.J.^.^.^.H.H.b.b.~.*X*X/ / / / Z b b "
};
