/* XPM */
static char *white[] = {
/* columns rows colors chars-per-pixel */
"50 50 13 1 ",
"  c #F1F1F1",
". c #F6F6F6",
"X c #F6F6F6",
"o c #F8F8F8",
"O c #F8F8F8",
"+ c #F8F8F8",
"@ c #F8F8F8",
"# c #FBFBFB",
"$ c #FDFDFD",
"% c #FDFDFD",
"& c #FDFDFD",
"* c #FDFDFD",
"= c white",
/* pixels */
" X@oOOOOOOOOOOOOOOOOOOOOOOOOOOOOOOOOOOOOOOOOOOo@X ",
".#*$%%%%%%%%%%%%%%%%%%%%%%%%%%%%%%%%%%%%%%%%%%$*#.",
"+&==============================================&+",
"O%==============================================%O",
"O%==============================================%O",
"O%==============================================%O",
"O%==============================================%O",
"O%==============================================%O",
"O%==============================================%O",
"O%==============================================%O",
"O%==============================================%O",
"O%==============================================%O",
"O%==============================================%O",
"O%==============================================%O",
"O%==============================================%O",
"O%==============================================%O",
"O%==============================================%O",
"O%==============================================%O",
"O%==============================================%O",
"O%==============================================%O",
"O%==============================================%O",
"O%==============================================%O",
"O%==============================================%O",
"O%==============================================%O",
"O%==============================================%O",
"O%==============================================%O",
"O%==============================================%O",
"O%==============================================%O",
"O%==============================================%O",
"O%==============================================%O",
"O%==============================================%O",
"O%==============================================%O",
"O%==============================================%O",
"O%==============================================%O",
"O%==============================================%O",
"O%==============================================%O",
"O%==============================================%O",
"O%==============================================%O",
"O%==============================================%O",
"O%==============================================%O",
"O%==============================================%O",
"O%==============================================%O",
"O%==============================================%O",
"O%==============================================%O",
"O%==============================================%O",
"O%==============================================%O",
"O%==============================================%O",
"+&==============================================&+",
".#*$%%%%%%%%%%%%%%%%%%%%%%%%%%%%%%%%%%%%%%%%%%$*#.",
" X@oOOOOOOOOOOOOOOOOOOOOOOOOOOOOOOOOOOOOOOOOOOo@X "
};
