/* XPM */
static char *yellow[] = {
/* columns rows colors chars-per-pixel */
"30 30 2 1 ",
"  c #F6C135",
". c #F7C135",
/* pixels */
" .       ..  .                ",
"        ..   . .  .   .     ..",
"        . ....    .       .   ",
"  .  .  .    .        .    ...",
" . .     ..   .         . . . ",
"                .    .  . .   ",
" ..   ..        .   .         ",
"   ..  .  .  ..  ..      .  . ",
"   ..  .           . .        ",
"   .         .   .    ..      ",
"  .       .  .     .          ",
"                .             ",
". .   ..   . .     .    .     ",
"      .  . .      .     ..  ..",
".         .   .   . .         ",
"  .       .        .  .  . .  ",
" .        ..  .  .. .     ..  ",
".  . .    .     .           . ",
"          . .        .        ",
" . .     .   . ..   ..        ",
"     .           .       .  . ",
" ..  ..  .      ...   .  . . .",
" .    .. ..    ...     .      ",
".      .   ..       .. .      ",
"       ..    . .      . .   . ",
"  ...        . .    .    .    ",
"        .    .  .   . .       ",
" .      .    .        .   .  .",
" .             .   .. .  .    ",
"   .               .          "
};
